<svg width="32" height="42" viewBox="0 0 32 35" fill="none" xmlns="http://www.w3.org/2000/svg">
<path d="M11 33.5228V20.6756C11 19.7033 11 19.2171 11.1817 18.8457C11.3414 18.5191 11.5964 18.2535 11.91 18.087C12.2665 17.8978 12.7332 17.8978 13.6667 17.8978H18.3333C19.2668 17.8978 19.7335 17.8978 20.09 18.087C20.4036 18.2535 20.6586 18.5191 20.8183 18.8457C21 19.2171 21 19.7033 21 20.6756V33.5228M14.3628 1.86311L3.05898 11.0213C2.30337 11.6335 1.92556 11.9396 1.65338 12.3229C1.41228 12.6625 1.23267 13.045 1.12338 13.4517C1 13.9109 1 14.4095 1 15.4066V27.9673C1 29.9119 1 30.8842 1.36331 31.6269C1.68289 32.2803 2.19282 32.8115 2.82003 33.1444C3.53307 33.5228 4.46649 33.5228 6.33333 33.5228H25.6667C27.5335 33.5228 28.4669 33.5228 29.18 33.1444C29.8072 32.8115 30.3171 32.2803 30.6367 31.6269C31 30.8842 31 29.9119 31 27.9673V15.4066C31 14.4095 31 13.9109 30.8766 13.4517C30.7673 13.045 30.5877 12.6625 30.3466 12.3229C30.0744 11.9396 29.6966 11.6335 28.941 11.0213L17.6372 1.86311C17.0516 1.38872 16.7589 1.15152 16.4356 1.06034C16.1503 0.979887 15.8497 0.979887 15.5644 1.06034C15.2411 1.15152 14.9484 1.38872 14.3628 1.86311Z" stroke="black" stroke-width="2" stroke-linecap="round" stroke-linejoin="round"/>
</svg>
