<svg width="34" height="42" viewBox="0 0 34 31" fill="none" xmlns="http://www.w3.org/2000/svg">
<path d="M30.1666 8.38955L15.9999 15.1867M15.9999 15.1867L1.83328 8.38955M15.9999 15.1867L16 28.861M19.3333 27.9813L17.2951 28.9593C16.8224 29.1861 16.586 29.2995 16.3358 29.3439C16.1142 29.3833 15.8858 29.3833 15.6643 29.3439C15.414 29.2995 15.1776 29.1861 14.705 28.9593L2.37162 23.0418C1.87243 22.8023 1.62281 22.6825 1.44106 22.5122C1.28026 22.3615 1.15858 22.1829 1.08414 21.9883C1 21.7684 1 21.5218 1 21.0286V9.34487C1 8.85167 1 8.60507 1.08414 8.38514C1.15858 8.19056 1.28026 8.01196 1.44106 7.86127C1.62281 7.69094 1.87242 7.57118 2.37162 7.33166L14.705 1.41415C15.1776 1.18736 15.414 1.07397 15.6643 1.02951C15.8858 0.990163 16.1142 0.990163 16.3358 1.02951C16.586 1.07397 16.8224 1.18736 17.2951 1.41415L29.6284 7.33166C30.1276 7.57117 30.3772 7.69093 30.5589 7.86127C30.7197 8.01196 30.8414 8.19056 30.9159 8.38513C31 8.60507 31 8.85167 31 9.34487L31 15.9064M8.5 4.39127L23.5 11.5882M27.6667 28.1413V19.5049M22.6667 23.8231H32.6667" stroke="black" stroke-width="2" stroke-linecap="round" stroke-linejoin="round"/>
</svg>
