<svg width="34" height="42" viewBox="0 0 34 30" fill="none" xmlns="http://www.w3.org/2000/svg">
<path d="M30.1666 8.22533L15.9999 14.8714M15.9999 14.8714L1.83328 8.22533M15.9999 14.8714L16 28.2418M19.3333 27.3818L17.2951 28.338C16.8224 28.5597 16.586 28.6706 16.3358 28.7141C16.1142 28.7525 15.8858 28.7525 15.6643 28.7141C15.414 28.6706 15.1776 28.5597 14.705 28.338L2.37162 22.552C1.87243 22.3178 1.62281 22.2007 1.44106 22.0341C1.28026 21.8868 1.15858 21.7122 1.08414 21.5219C1 21.3069 1 21.0657 1 20.5835V9.15943C1 8.67719 1 8.43607 1.08414 8.22102C1.15858 8.03077 1.28026 7.85614 1.44106 7.7088C1.62281 7.54225 1.87242 7.42515 2.37162 7.19096L14.705 1.40495C15.1776 1.1832 15.414 1.07232 15.6643 1.02885C15.8858 0.990382 16.1142 0.990382 16.3358 1.02885C16.586 1.07232 16.8224 1.1832 17.2951 1.40494L29.6284 7.19095C30.1276 7.42515 30.3772 7.54225 30.5589 7.70879C30.7197 7.85614 30.8414 8.03077 30.9159 8.22102C31 8.43607 31 8.67719 31 9.15943V16.2789M8.5 4.31591L23.5 11.3529M22.6667 23.3159H32.6667" stroke="black" stroke-width="2" stroke-linecap="round" stroke-linejoin="round"/>
</svg>
