<svg width="29" height="42" viewBox="0 0 29 35" fill="none" xmlns="http://www.w3.org/2000/svg">
<path d="M17.6667 1.44074V8.19509C17.6667 9.11089 17.6667 9.5688 17.8483 9.91859C18.0081 10.2263 18.2631 10.4764 18.5767 10.6332C18.9332 10.8114 19.3999 10.8114 20.3333 10.8114H27.2176M9.33333 23.8931L12.6667 27.1635L20.1667 19.805M17.6667 1H9C6.19974 1 4.79961 1 3.73005 1.53469C2.78924 2.00501 2.02433 2.75548 1.54497 3.67854C1 4.72792 1 6.10163 1 8.84906V25.8553C1 28.6028 1 29.9765 1.54497 31.0259C2.02433 31.9489 2.78924 32.6994 3.73005 33.1697C4.79961 33.7044 6.19974 33.7044 9 33.7044H19.6667C22.4669 33.7044 23.8671 33.7044 24.9366 33.1697C25.8774 32.6994 26.6423 31.9489 27.1217 31.0259C27.6667 29.9765 27.6667 28.6028 27.6667 25.8553V10.8113L17.6667 1Z" stroke="black" stroke-width="2" stroke-linecap="round" stroke-linejoin="round"/>
</svg>
