<svg width="40" height="42" viewBox="0 0 40 42" fill="none" xmlns="http://www.w3.org/2000/svg">
<path d="M31.3044 3.13989V11.9318M26.2319 7.53583H36.3768" stroke="black" stroke-width="2" stroke-linecap="round" stroke-linejoin="round"/>
<path d="M13.8615 37.3947V26.0351C13.8615 25.1753 13.8615 24.7455 14.0293 24.4171C14.177 24.1282 14.4126 23.8934 14.7024 23.7462C15.0319 23.5789 15.4631 23.5789 16.3257 23.5789H20.6382C21.5007 23.5789 21.932 23.5789 22.2615 23.7462C22.5513 23.8934 22.7869 24.1282 22.9346 24.4171C23.1024 24.7455 23.1024 25.1753 23.1024 26.0351V37.3947M16.969 9.40087L6.52318 17.4987C5.82492 18.04 5.47579 18.3106 5.22427 18.6496C5.00147 18.9498 4.83549 19.288 4.7345 19.6477C4.62048 20.0536 4.62048 20.4945 4.62048 21.3762V32.4824C4.62048 34.2019 4.62048 35.0616 4.95622 35.7184C5.25154 36.2961 5.72277 36.7657 6.30237 37.0601C6.96129 37.3947 7.82386 37.3947 9.549 37.3947H27.4149C29.14 37.3947 30.0026 37.3947 30.6615 37.0601C31.2411 36.7657 31.7123 36.2961 32.0077 35.7184C32.3434 35.0616 32.3434 34.2019 32.3434 32.4824V21.3762C32.3434 20.4945 32.3434 20.0536 32.2294 19.6477C32.1284 19.288 31.9624 18.9498 31.7396 18.6496C31.4881 18.3106 31.139 18.04 30.4407 17.4987L19.9949 9.40087C19.4538 8.9814 19.1832 8.77167 18.8845 8.69105C18.6209 8.61991 18.343 8.61991 18.0794 8.69105C17.7807 8.77167 17.5101 8.9814 16.969 9.40087Z" stroke="black" stroke-width="2" stroke-linecap="round" stroke-linejoin="round"/>
</svg>
